PathFileType	4	(X/Y/Z)	 s06c0302.trc
DataRate	CameraRate	NumFrames	NumMarkers	Units	OrigDataRate	OrigDataStartFrame	OrigNumFrames
200	200	4	48	mm	200	251	2000
Frame#	Time	racr			lacr			c7			jug			rlel			rdr			llel			ldr			s2			lic			ric			lasi			rasi			rpsi			lpsi			rgt			lgt			rth1			rth2			rth3			rth4			rlfc			rmfc			rsh1			rsh2			rsh3			rsh4			rlmal			rcal			rtoe			rmt5			lth1			lth2			lth4			lth3			llfc			lmfc			llmal			lcal			lmt5			lsh1			lsh2			lsh3			lsh4			ltoe			SBIKE			LBIKE			RBIKE			
		X1	Y1	Z1	X2	Y2	Z2	X3	Y3	Z3	X4	Y4	Z4	X5	Y5	Z5	X6	Y6	Z6	X7	Y7	Z7	X8	Y8	Z8	X9	Y9	Z9	X10	Y10	Z10	X11	Y11	Z11	X12	Y12	Z12	X13	Y13	Z13	X14	Y14	Z14	X15	Y15	Z15	X16	Y16	Z16	X17	Y17	Z17	X18	Y18	Z18	X19	Y19	Z19	X20	Y20	Z20	X21	Y21	Z21	X22	Y22	Z22	X23	Y23	Z23	X24	Y24	Z24	X25	Y25	Z25	X26	Y26	Z26	X27	Y27	Z27	X28	Y28	Z28	X29	Y29	Z29	X30	Y30	Z30	X31	Y31	Z31	X32	Y32	Z32	X33	Y33	Z33	X34	Y34	Z34	X35	Y35	Z35	X36	Y36	Z36	X37	Y37	Z37	X38	Y38	Z38	X39	Y39	Z39	X40	Y40	Z40	X41	Y41	Z41	X42	Y42	Z42	X43	Y43	Z43	X44	Y44	Z44	X45	Y45	Z45	X46	Y46	Z46	X47	Y47	Z47	X48	Y48	Z48	
251	1.2550	486.497630	1329.369626	-55.272981	498.360702	1328.015220	-376.068508	480.924455	1411.311719	-213.707990	498.554864	1257.168990	-210.023798	516.454376	1075.758318	51.811663	711.178538	930.510096	-32.404971	515.733434	1067.250272	-466.180635	711.238009	925.686142	-404.541313	-30.555965	1167.112532	-231.104409	151.568965	1092.921156	-378.258987	120.252696	1127.484253	-50.562137	153.125469	1030.144809	-345.921509	125.311455	1064.697143	-72.603633	6.979620	1200.620929	-200.623298	11.593052	1194.507894	-260.311940	80.416218	1086.190366	-16.167617	94.510322	1018.675482	-409.368448	180.735528	1005.146145	-18.504910	264.837951	971.798149	-27.410012	319.188635	903.907542	-32.250574	281.724069	999.449804	-47.526280	377.784717	817.399286	-55.269456	368.217542	791.460150	-165.068230	343.056644	698.378500	-27.452479	332.734420	612.748208	-45.994239	285.025876	540.522270	-45.108050	353.222123	609.296101	-80.609268	246.269289	461.121868	-48.620048	183.663094	425.129594	-96.241954	460.613346	426.137528	-98.710148	365.861719	399.555340	-27.165471	120.642266	896.225546	-420.223446	174.484332	828.671191	-409.548869	206.956676	843.697967	-398.882686	187.077425	740.623602	-399.034070	197.965055	630.558032	-376.311504	185.618096	616.415072	-263.532058	-40.026695	341.973070	-377.920286	-119.851704	325.632890	-331.346568	68.077820	263.263680	-399.139682	136.216302	543.844065	-402.060612	97.363770	468.643079	-381.117356	26.627939	414.778873	-385.371578	114.224081	459.276421	-346.829985	152.986192	258.946950	-339.137978	-203.026599	866.968899	-207.099905	-49.564790	83.644728	-414.549988	-49.407493	79.653250	-17.485679	
252	1.2600	488.154285	1329.377793	-55.704180	500.277006	1327.985494	-375.190403	482.691246	1411.196789	-213.481991	499.929975	1257.078023	-209.595559	516.731234	1076.058493	51.951582	710.677719	930.924660	-32.430189	515.908244	1067.624363	-466.663788	710.809176	925.759205	-404.738330	-29.880099	1169.357917	-231.823347	151.648129	1094.593942	-378.689960	120.737957	1128.672756	-51.069866	152.933907	1031.711622	-346.380455	125.537311	1065.907368	-73.230913	7.686865	1202.629944	-201.128102	12.302443	1196.582696	-260.746837	80.865908	1087.492377	-16.707905	94.651296	1020.550807	-409.893014	180.591273	1004.863982	-18.864012	264.260099	970.479243	-27.824389	317.767714	902.194405	-32.634181	281.517952	997.964993	-47.815736	375.447336	814.363221	-55.784628	365.112913	788.362593	-165.174295	341.265869	695.163257	-27.836728	331.184861	609.540313	-46.333311	283.625682	537.045012	-45.339998	351.493909	606.028879	-80.986486	245.330072	458.144521	-49.136482	183.001477	421.030583	-96.549476	460.046472	426.238011	-98.531043	365.487952	398.313162	-27.070806	120.656849	898.148174	-420.460868	174.576856	830.664206	-409.616169	207.051149	845.738468	-399.032693	187.244912	742.674079	-398.817131	198.581129	633.089251	-376.101900	186.238045	619.182237	-263.032306	-39.192275	343.901738	-377.337123	-119.093208	328.654934	-331.244417	68.119720	264.042214	-398.979184	137.445610	545.800834	-401.929802	98.399283	470.950306	-380.416078	27.836393	416.916050	-384.749851	115.140600	461.744120	-346.069441	153.015391	258.887958	-339.029563	-203.011461	866.972081	-207.032388	-49.578894	83.714900	-414.559012	-49.442273	79.668747	-17.475333	
253	1.2650	489.790627	1329.347690	-56.016139	502.279884	1327.905925	-374.254349	484.607167	1411.125467	-213.152043	501.414990	1257.031306	-209.259212	517.121207	1076.331967	51.854124	710.514450	930.738182	-32.686225	515.958778	1068.175103	-467.319757	710.549082	925.821493	-405.060884	-29.182101	1171.829190	-232.081184	151.807486	1096.458777	-379.044718	121.455413	1130.183685	-51.560033	152.715724	1033.466316	-346.774768	126.377764	1067.541227	-74.039639	8.473292	1204.828248	-201.541778	13.060252	1198.946457	-261.077159	81.394750	1088.580559	-17.326120	94.804171	1022.846969	-410.426837	180.832219	1004.583681	-19.099319	263.739701	969.028151	-28.129093	316.331628	900.023735	-33.160689	281.310118	996.291527	-48.075452	372.947568	810.967511	-56.107052	361.867348	784.960638	-165.228697	339.450538	691.710766	-28.217249	329.696831	606.030184	-46.717685	282.451367	533.368551	-45.719654	349.833448	602.729884	-81.582835	244.464285	455.054782	-49.681459	182.412488	416.837548	-97.103316	459.454253	426.248070	-98.178486	365.088442	397.117921	-27.028235	120.560805	900.453360	-420.643484	174.645699	833.174618	-409.762214	207.065004	848.145066	-398.892447	187.510278	745.144351	-398.837316	199.512848	635.898634	-375.810993	186.950298	622.251567	-262.623721	-38.286697	346.615752	-377.214321	-118.087562	331.757361	-331.229673	68.301433	265.051745	-398.733028	138.812073	548.117898	-401.500270	99.536509	473.466410	-379.772203	28.973984	419.452342	-384.173183	116.090816	464.477786	-345.234350	153.110368	258.656140	-338.901907	-202.991614	866.966040	-206.927794	-49.593039	83.687180	-414.499852	-49.424735	79.652098	-17.468603	
254	1.2700	491.321133	1329.391601	-56.268737	504.510733	1327.816164	-373.187248	486.660369	1411.104963	-212.776971	502.995342	1256.982570	-208.923613	517.401279	1076.545729	51.661247	710.238307	932.082017	-32.260989	516.057272	1068.747446	-468.064241	710.439180	925.811275	-405.407159	-28.507852	1174.254794	-232.131911	152.099301	1098.479524	-379.434520	122.367884	1131.504275	-51.991869	152.539122	1035.437929	-347.372362	126.948243	1068.905754	-74.665320	9.360329	1207.131886	-201.538511	13.873235	1201.291832	-261.110254	82.141779	1089.694442	-17.437656	94.978097	1025.561884	-411.018961	180.778891	1004.260087	-19.294009	263.057734	967.439710	-28.429364	314.626846	897.556520	-33.619960	281.070896	994.533597	-48.247470	370.231232	807.549189	-56.497088	358.564110	781.239706	-165.067559	337.474677	688.422889	-28.734096	328.254170	602.753302	-47.360939	281.511541	529.737970	-46.325044	347.939309	599.766093	-82.432225	243.457593	451.891089	-50.266876	181.658210	412.924228	-97.291383	458.733263	426.239304	-97.843688	364.568987	395.745022	-26.977163	120.403648	903.141007	-420.734395	174.792730	836.045109	-409.985367	207.126106	851.142984	-399.100284	187.970897	748.133713	-399.053624	200.507895	638.891905	-375.612481	187.934530	625.871147	-262.026003	-36.850181	349.334074	-376.923118	-116.768041	335.280005	-331.053836	68.637102	265.788824	-398.525245	140.230398	550.998269	-401.006606	100.810426	476.335523	-379.289779	30.134167	422.614772	-384.275966	117.250161	467.333844	-344.827299	153.400293	258.098144	-338.757829	-202.878346	866.980634	-206.822809	-49.589371	83.713395	-414.528000	-49.424522	79.651332	-17.460918	
